<svg width="79" height="92" viewBox="0 0 79 92" fill="none" xmlns="http://www.w3.org/2000/svg">
<path d="M79 92H41.2852C35.1206 92 29.3519 90.7813 24.1328 88.3781C19.1527 86.0844 14.7733 82.7603 11.1175 78.4982C3.94934 70.1417 0 58.6015 0 46C0 33.3985 3.94934 21.8583 11.1175 13.5018C14.7733 9.23969 19.1527 5.91559 24.1328 3.62192C29.3485 1.21871 35.1206 0 41.2852 0H79V40.5671C79 43.6002 76.5389 46.065 73.518 46.065H67.1213H73.518C76.5423 46.065 79 48.5333 79 51.563V92ZM41.2852 1.04753C29.4407 1.04753 19.2824 5.59036 11.9094 14.1865C4.90508 22.3512 1.04452 33.6519 1.04452 46C1.04452 58.3516 4.90166 69.6487 11.9094 77.8135C19.2824 86.4096 29.4407 90.9524 41.2852 90.9524H77.9555V52.614C77.9555 50.1594 75.962 48.1601 73.5146 48.1601H66.4933V43.9015H73.5146C75.962 43.9015 77.9555 41.9022 77.9555 39.4476V1.04753H41.2852Z" fill="black"/>
<path d="M45.8555 80.7739C56.8535 80.7739 60.8779 60.7916 60.8779 60.7916H64.1411C63.9466 63.9342 59.4375 84.3958 44.8247 84.3958C38.4279 84.3958 33.062 80.9827 28.628 74.1531C24.2964 67.3234 22.1289 58.1145 22.1289 46.6291C22.1289 35.1436 24.2964 25.9347 28.628 19.105C33.0654 12.2754 38.4279 8.8623 44.8247 8.8623C50.0813 8.8623 55.4131 12.5493 55.4131 12.5493L63.1752 9.37924V31.1074H60.1441C59.5194 26.4516 56.8979 20.2416 55.7612 18.4854C53.3889 14.8635 49.2621 11.4504 44.8247 11.4504C40.3872 11.4504 36.7758 14.5554 33.7857 20.762C30.7921 26.8659 29.3482 35.5578 29.3482 46.6291C29.3482 69.3911 36.6735 80.7739 45.8555 80.7739Z" fill="black"/>
</svg>
