<svg width="16" height="16" viewBox="0 0 16 16" fill="none" xmlns="http://www.w3.org/2000/svg">
<path d="M8 4.05554C9.58836 4.05554 11.4825 4.9787 13.0296 6.02186C13.7917 6.53568 14.4447 7.0617 14.9029 7.48215C15.1312 7.69168 15.3042 7.86864 15.4165 7.99998C15.3042 8.13133 15.1312 8.30829 14.9029 8.51783C14.4447 8.93828 13.7917 9.4643 13.0296 9.97813C11.4825 11.0213 9.58836 11.9445 8 11.9445C6.41164 11.9445 4.51751 11.0213 2.97039 9.97813C2.20834 9.4643 1.5553 8.93828 1.09714 8.51783C0.868812 8.30829 0.695838 8.13134 0.583528 7.99999C0.695838 7.86864 0.868811 7.69169 1.09714 7.48215C1.5553 7.0617 2.20834 6.53568 2.97039 6.02186C4.51751 4.9787 6.41164 4.05554 8 4.05554Z" stroke="black"/>
</svg>
