<svg width="30" height="18" viewBox="0 0 30 18" fill="none" xmlns="http://www.w3.org/2000/svg">
<path d="M18.4946 1.92188H10.6211V16.0717H18.4946V1.92188Z" fill="#FF5F00"/>
<path d="M11.1216 9.00098C11.1205 7.63847 11.4294 6.29357 12.0248 5.06806C12.6203 3.84255 13.4867 2.76854 14.5585 1.9273C13.231 0.884051 11.6368 0.235315 9.95805 0.0552392C8.27933 -0.124837 6.5838 0.171012 5.06526 0.908972C3.54672 1.64693 2.26643 2.79723 1.37072 4.2284C0.475001 5.65957 0 7.31387 0 9.00223C0 10.6906 0.475001 12.3449 1.37072 13.7761C2.26643 15.2072 3.54672 16.3575 5.06526 17.0955C6.5838 17.8334 8.27933 18.1293 9.95805 17.9492C11.6368 17.7691 13.231 17.1204 14.5585 16.0772C13.4863 15.2357 12.6197 14.1612 12.0243 12.9353C11.4288 11.7093 11.1201 10.3639 11.1216 9.00098Z" fill="#EB001B"/>
<path d="M29.1184 9.00061C29.1183 10.6891 28.6432 12.3435 27.7473 13.7747C26.8515 15.2059 25.571 16.3562 24.0523 17.0941C22.5335 17.8319 20.8378 18.1276 19.159 17.9473C17.4802 17.7669 15.886 17.1179 14.5586 16.0743C15.63 15.2323 16.4961 14.158 17.0917 12.9324C17.6873 11.7068 17.9968 10.362 17.9968 8.99936C17.9968 7.63673 17.6873 6.29189 17.0917 5.06631C16.4961 3.84073 15.63 2.76642 14.5586 1.92444C15.8861 0.880728 17.4806 0.231647 19.1596 0.0514066C20.8387 -0.128834 22.5346 0.167039 24.0534 0.905198C25.5722 1.64336 26.8526 2.79401 27.7483 4.22559C28.644 5.65718 29.1188 7.31192 29.1184 9.00061Z" fill="#F79E1B"/>
<path d="M28.2531 14.5716V14.2817H28.3706V14.2242H28.0781V14.2842H28.1956V14.5741L28.2531 14.5716ZM28.8305 14.5716V14.2217H28.753L28.648 14.4716L28.543 14.2217H28.4506V14.5716H28.503V14.3092L28.6005 14.5366H28.668L28.7655 14.3092V14.5741L28.8305 14.5716Z" fill="#F79E1B"/>
</svg>
