<svg width="56" height="18" viewBox="0 0 56 18" fill="none" xmlns="http://www.w3.org/2000/svg">
<path d="M24.1011 17.7399H19.5957L22.4137 0.31543H26.9189L24.1011 17.7399Z" fill="#00579F"/>
<path d="M40.433 0.741829C39.5443 0.389269 38.1348 0 36.392 0C31.9427 0 28.8096 2.37257 28.7904 5.76463C28.7534 8.26729 31.0336 9.65732 32.739 10.4918C34.4821 11.3445 35.0746 11.901 35.0746 12.6611C35.0569 13.8284 33.6661 14.3665 32.369 14.3665C30.5702 14.3665 29.6064 14.0891 28.1417 13.4396L27.5484 13.1612L26.918 17.0727C27.9747 17.5541 29.9215 17.9813 31.9427 18C36.6701 18 39.7478 15.6641 39.7843 12.0494C39.8023 10.0658 38.5983 8.54593 36.0025 7.30397C34.4267 6.50671 33.4616 5.96912 33.4616 5.15338C33.4801 4.4118 34.2779 3.65223 36.0567 3.65223C37.5214 3.61503 38.5975 3.9671 39.4128 4.31941L39.8203 4.50443L40.433 0.741829Z" fill="#00579F"/>
<path d="M46.4218 11.567C46.7928 10.566 48.2206 6.6918 48.2206 6.6918C48.2018 6.72901 48.5909 5.67231 48.8133 5.02361L49.1282 6.52501C49.1282 6.52501 49.9814 10.6959 50.1667 11.567C49.4625 11.567 47.3117 11.567 46.4218 11.567ZM51.9832 0.31543H48.4982C47.4235 0.31543 46.6071 0.630294 46.1434 1.76115L39.4512 17.7397H44.1786C44.1786 17.7397 44.9569 15.5891 45.1242 15.1259C45.6428 15.1259 50.2416 15.1259 50.9087 15.1259C51.0381 15.7376 51.4463 17.7397 51.4463 17.7397H55.6179L51.9832 0.31543Z" fill="#00579F"/>
<path d="M15.8325 0.31543L11.4202 12.1973L10.938 9.78748C10.1223 7.00691 7.56395 3.98589 4.70898 2.48376L8.75048 17.7214H13.5148L20.5966 0.31543H15.8325Z" fill="#00579F"/>
<path d="M7.32294 0.31543H0.0741579L0 0.667496C5.6545 2.11346 9.39937 5.59889 10.938 9.78822L9.36217 1.78012C9.10274 0.66725 8.30547 0.352139 7.32294 0.31543Z" fill="#FAA61A"/>
</svg>
